<svg width="21" height="24" viewBox="0 0 21 24" fill="none" xmlns="http://www.w3.org/2000/svg">
<path d="M11.0526 14.6469V16.9569C10.0523 16.6033 8.98167 16.4948 7.93071 16.6406C6.87975 16.7864 5.87911 17.1823 5.01285 17.795C4.14658 18.4076 3.43996 19.2192 2.95234 20.1616C2.46472 21.1039 2.21032 22.1495 2.21053 23.2105H6.3576e-07C-0.000511163 21.8608 0.30799 20.5288 0.901861 19.3168C1.49573 18.1047 2.35921 17.0447 3.42612 16.2179C4.49303 15.3912 5.73505 14.8196 7.057 14.5471C8.37896 14.2746 9.74575 14.3095 11.0526 14.6469ZM8.84211 13.2632C5.17816 13.2632 2.21053 10.2955 2.21053 6.63158C2.21053 2.96763 5.17816 0 8.84211 0C12.5061 0 15.4737 2.96763 15.4737 6.63158C15.4737 10.2955 12.5061 13.2632 8.84211 13.2632ZM8.84211 11.0526C11.2847 11.0526 13.2632 9.07421 13.2632 6.63158C13.2632 4.18895 11.2847 2.21053 8.84211 2.21053C6.39947 2.21053 4.42105 4.18895 4.42105 6.63158C4.42105 9.07421 6.39947 11.0526 8.84211 11.0526ZM15.4737 17.6842V14.3684H17.6842V17.6842H21V19.8947H17.6842V23.2105H15.4737V19.8947H12.1579V17.6842H15.4737Z" fill="black"/>
</svg>
