<svg width="20" height="20" viewBox="0 0 20 20" fill="none" xmlns="http://www.w3.org/2000/svg">
<path d="M19 10C19 14.9706 14.9706 19 10 19C5.02944 19 1 14.9706 1 10C1 5.02944 5.02944 1 10 1C14.9706 1 19 5.02944 19 10Z" stroke="black" stroke-width="2"/>
<path d="M13.3913 8.21804L13.0806 9.31445H7.26119L7.57191 8.21804H13.3913ZM10.5593 15.125L7.38104 11.2676L7.37216 10.402H8.94798C9.34156 10.402 9.67448 10.3413 9.94673 10.22C10.219 10.0987 10.4261 9.92259 10.5682 9.69176C10.7102 9.45798 10.7812 9.17389 10.7812 8.83949C10.7812 8.34233 10.6333 7.94727 10.3374 7.6543C10.0414 7.36133 9.5783 7.21484 8.94798 7.21484H7.26119L7.58523 6.03409H8.94798C9.68188 6.03409 10.2871 6.15098 10.7635 6.38477C11.2399 6.61855 11.5951 6.94259 11.8288 7.35689C12.0626 7.77119 12.1795 8.24911 12.1795 8.79066C12.1795 9.27302 12.0833 9.70952 11.891 10.1001C11.6986 10.4908 11.3923 10.8089 10.9721 11.0545C10.5519 11.3001 10 11.4437 9.31641 11.4851L9.27646 11.494L12.1795 15.0495V15.125H10.5593ZM13.3958 6.03409L13.0806 7.13938L8.42862 7.11275L8.74379 6.03409H13.3958Z" fill="black"/>
</svg>
