<svg width="40" height="40" viewBox="0 0 40 40" fill="none" xmlns="http://www.w3.org/2000/svg">
<path d="M38.6935 20C38.6935 30.3241 30.3241 38.6935 20 38.6935C9.67588 38.6935 1.30653 30.3241 1.30653 20C1.30653 9.67588 9.67588 1.30653 20 1.30653C23.9132 1.30653 27.5456 2.50896 30.5479 4.56451L31.7934 3.84541C28.4869 1.4274 24.4101 0 20 0C8.9543 0 0 8.9543 0 20C0 31.0457 8.9543 40 20 40C31.0457 40 40 31.0457 40 20C40 17.4451 39.521 15.0022 38.6478 12.756L37.5017 13.4177C38.272 15.4651 38.6935 17.6833 38.6935 20Z" fill="black"/>
<line x1="35" y1="2" x2="35" y2="12" stroke="black" stroke-width="2"/>
<line x1="29.9497" y1="7.14075" x2="39.9497" y2="7.14075" stroke="black" stroke-width="2"/>
<path d="M26.245 15.5928L25.7261 17.3749H15.2589L15.7778 15.5928H26.245ZM21.5528 28L15.586 21.0294L15.5748 19.6308H18.3269C19.124 19.6308 19.7819 19.4992 20.3008 19.236C20.8271 18.9653 21.2219 18.6006 21.4851 18.1419C21.7483 17.6832 21.8799 17.1681 21.8799 16.5966C21.8799 15.9575 21.7558 15.3973 21.5077 14.916C21.2595 14.4272 20.8685 14.0475 20.3346 13.7768C19.8083 13.4986 19.1165 13.3595 18.2592 13.3595H15.2815L15.8116 11.5773H18.2592C19.5676 11.5773 20.6467 11.7766 21.4964 12.1751C22.3536 12.5662 22.9928 13.1376 23.4139 13.8896C23.835 14.6416 24.0455 15.5514 24.0455 16.6192C24.0455 17.5366 23.8688 18.36 23.5154 19.0894C23.1695 19.8112 22.5942 20.379 21.7896 20.7925C20.9926 21.2061 19.9173 21.4129 18.5638 21.4129L24.1132 27.8646V28H21.5528ZM26.245 11.5773L25.7261 13.3595H17.2892L17.8081 11.5773H26.245Z" fill="black"/>
</svg>
