<svg width="27" height="27" viewBox="0 0 27 27" fill="none" xmlns="http://www.w3.org/2000/svg">
<path d="M25.2181 20.5898C24.2638 19.6283 21.9526 18.2251 20.8312 17.6596C19.371 16.9241 19.2508 16.864 18.103 17.7167C17.3374 18.2858 16.8284 18.7942 15.9324 18.6031C15.0364 18.412 13.0894 17.3345 11.3845 15.6351C9.67966 13.9356 8.53968 11.9321 8.34799 11.0391C8.15629 10.1461 8.67309 9.64316 9.23677 8.87576C10.0312 7.79408 9.97111 7.6138 9.29205 6.15352C8.76263 5.01775 7.31858 2.72819 6.35348 1.77871C5.32107 0.758923 5.32107 0.939203 4.65584 1.21563C4.11426 1.4435 3.59468 1.72049 3.10362 2.04312C2.14212 2.68192 1.60849 3.21254 1.23531 4.00998C0.862129 4.80743 0.694468 6.67694 2.62167 10.178C4.54887 13.679 5.90097 15.4692 8.69953 18.26C11.4981 21.0507 13.65 22.5513 16.7959 24.3156C20.6876 26.4952 22.1803 26.0703 22.9802 25.6978C23.78 25.3252 24.313 24.7964 24.953 23.8349C25.2765 23.3446 25.5541 22.8256 25.7823 22.2844C26.0594 21.6216 26.2396 21.6216 25.2181 20.5898Z" stroke="black" stroke-width="1.92299" stroke-miterlimit="10"/>
</svg>
