<svg width="17" height="20" viewBox="0 0 17 20" fill="none" xmlns="http://www.w3.org/2000/svg">
<path d="M5.28571 5H11.7143M5.28571 9H11.7143M5.28571 13H9.57143M1 3C1 2.46957 1.22576 1.96086 1.62763 1.58579C2.02949 1.21071 2.57454 1 3.14286 1H13.8571C14.4255 1 14.9705 1.21071 15.3724 1.58579C15.7742 1.96086 16 2.46957 16 3V17C16 17.5304 15.7742 18.0391 15.3724 18.4142C14.9705 18.7893 14.4255 19 13.8571 19H3.14286C2.57454 19 2.02949 18.7893 1.62763 18.4142C1.22576 18.0391 1 17.5304 1 17V3Z" stroke="black" stroke-width="2" stroke-linecap="round" stroke-linejoin="round"/>
</svg>
