<svg width="25" height="25" viewBox="0 0 25 25" fill="none" xmlns="http://www.w3.org/2000/svg">
<path d="M7.5 0L6.66667 0.892857V3.61964C7.22054 3.55405 7.77946 3.55405 8.33333 3.61964V1.78571H23.3333V10.7143H20.4883L18.3333 13.0232V10.7143H14.955C15.0162 11.3077 15.0162 11.9066 14.955 12.5H16.6667V15.1786L18.09 15.8107L21.1783 12.5H24.1667L25 11.6071V0.892857L24.1667 0H7.5Z" fill="black"/>
<path fill-rule="evenodd" clip-rule="evenodd" d="M10.695 16.8375C11.746 16.1003 12.5468 15.0194 12.9783 13.7554C13.4099 12.4915 13.449 11.112 13.0901 9.82225C12.7311 8.5325 11.9931 7.40136 10.9859 6.59708C9.97875 5.79279 8.75615 5.35834 7.5 5.35834C6.24385 5.35834 5.02125 5.79279 4.01406 6.59708C3.00688 7.40136 2.26891 8.5325 1.90994 9.82225C1.55096 11.112 1.59015 12.4915 2.02168 13.7554C2.45321 15.0194 3.25402 16.1003 4.305 16.8375C3.01786 17.4871 1.92968 18.5155 1.16742 19.8027C0.40517 21.0898 0.000280912 22.5827 0 24.1071V25H1.66667V24.1071C1.71782 22.4861 2.35481 20.9498 3.44318 19.8224C4.53156 18.6951 5.98617 18.0649 7.5 18.0649C9.01383 18.0649 10.4684 18.6951 11.5568 19.8224C12.6452 20.9498 13.2822 22.4861 13.3333 24.1071V25H15V24.1071C14.9997 22.5827 14.5948 21.0898 13.8326 19.8027C13.0703 18.5155 11.9821 17.4871 10.695 16.8375ZM7.5 16.0714C6.39493 16.0714 5.33512 15.6011 4.55372 14.7639C3.77232 13.9267 3.33333 12.7911 3.33333 11.6071C3.33333 10.4231 3.77232 9.28763 4.55372 8.45042C5.33512 7.6132 6.39493 7.14286 7.5 7.14286C8.60507 7.14286 9.66488 7.6132 10.4463 8.45042C11.2277 9.28763 11.6667 10.4231 11.6667 11.6071C11.6667 12.7911 11.2277 13.9267 10.4463 14.7639C9.66488 15.6011 8.60507 16.0714 7.5 16.0714Z" fill="black"/>
</svg>
