<svg width="17" height="20" viewBox="0 0 17 20" fill="none" xmlns="http://www.w3.org/2000/svg">
<path d="M7.65 0.00129025C7.84895 0.00123563 8.04161 0.0586502 8.19444 0.163535C8.34728 0.26842 8.45059 0.414131 8.4864 0.57529L8.5 0.70129V4.90129C8.5002 5.70815 8.16189 6.49028 7.54231 7.11532C6.92274 7.74036 6.05996 8.16992 5.1 8.33129V18.9013C5.10039 19.0762 5.02124 19.2449 4.87814 19.3742C4.73503 19.5035 4.53834 19.5839 4.32681 19.5997C4.11527 19.6155 3.90421 19.5655 3.73519 19.4596C3.56617 19.3536 3.45144 19.1994 3.4136 19.0273L3.4 18.9013V8.33129C2.48908 8.17787 1.66434 7.78277 1.0521 7.2065C0.439862 6.63024 0.0738768 5.90459 0.0102015 5.14069L1.44192e-06 4.90129V0.70129C-0.00038958 0.526366 0.0787608 0.35766 0.221866 0.228394C0.364971 0.0991278 0.561659 0.01867 0.773198 0.00286472C0.984738 -0.0129405 1.1958 0.037052 1.36482 0.142998C1.53383 0.248943 1.64856 0.403164 1.6864 0.57529L1.7 0.70129V4.90129C1.69972 5.33575 1.86308 5.75958 2.16755 6.11438C2.47202 6.46918 2.90262 6.73747 3.4 6.88229V0.70129C3.39961 0.526366 3.47876 0.35766 3.62187 0.228394C3.76497 0.0991278 3.96166 0.01867 4.1732 0.00286472C4.38474 -0.0129405 4.5958 0.037052 4.76482 0.142998C4.93383 0.248943 5.04856 0.403164 5.0864 0.57529L5.1 0.70129V6.88089C6.0146 6.61489 6.6895 5.93169 6.7881 5.10989L6.8 4.90129V0.70129C6.8 0.515639 6.88955 0.337591 7.04896 0.206316C7.20837 0.0750402 7.42457 0.00129025 7.65 0.00129025ZM16.15 0.00129025C16.3489 0.00123563 16.5416 0.0586502 16.6944 0.163535C16.8473 0.26842 16.9506 0.414131 16.9864 0.57529L17 0.70129V18.9013C17.0004 19.0762 16.9212 19.2449 16.7781 19.3742C16.635 19.5035 16.4383 19.5839 16.2268 19.5997C16.0153 19.6155 15.8042 19.5655 15.6352 19.4596C15.4662 19.3536 15.3514 19.1994 15.3136 19.0273L15.3 18.9013V11.2013H12.75C12.5511 11.2013 12.3584 11.1439 12.2056 11.039C12.0527 10.9342 11.9494 10.7885 11.9136 10.6273L11.9 10.5013V3.50129C11.9 2.57303 12.3478 1.68279 13.1448 1.02642C13.9418 0.370039 15.0228 0.00129025 16.15 0.00129025ZM15.3 9.80129V1.52029C14.3854 1.78629 13.7105 2.46949 13.6119 3.29269L13.6 3.50129V9.80129H15.3Z" fill="black"/>
</svg>
