<svg width="258" height="258" viewBox="0 0 258 258" fill="none" xmlns="http://www.w3.org/2000/svg">
<ellipse cx="117.22" cy="116.374" rx="78.9111" ry="93.2842" fill="black"/>
<g filter="url(#filter0_d_25_114)">
<path d="M118.928 0.14299C107.962 1.14957 93.4696 4.50487 83.7896 8.2516C46.1329 23.0149 17.3169 55.5052 7.63697 94.091C4.67144 105.89 4 111.874 4 125.071C4 138.269 4.67144 144.253 7.63697 156.052C18.5479 199.559 53.5188 234.733 97.1065 246.085C109.472 249.273 115.403 250 129 250C142.205 250 148.192 249.329 159.998 246.365C203.586 235.46 238.725 200.565 250.083 156.947C253.273 144.588 254 138.66 254 125.071C254 111.483 253.273 105.555 250.083 93.1963C237.606 45.2157 197.207 8.92267 147.744 1.20551C142.317 0.366684 123.964 -0.304382 118.928 0.14299ZM178.239 75.8606V84.8081H162.292C153.508 84.8081 146.346 84.9758 146.346 85.1436C146.346 85.3673 147.129 86.4298 148.136 87.4923C149.927 89.5614 153.06 95.8246 153.06 97.3904C153.06 98.1174 154.739 98.2292 165.65 98.2292H178.239V107.177V116.124H165.314H152.389L152.053 117.354C151.325 120.094 147.353 127.197 144.723 130.44C138.12 138.549 126.258 144.644 117.082 144.644H114.34L116.466 147.105C133.42 166.509 150.71 186.809 154.123 191.171C154.85 192.121 154.179 192.177 142.373 192.121H129.839L109.416 168.578L88.9933 145.091L88.8254 137.374L88.6576 129.657L102.534 129.433L116.41 129.266L120.047 127.532C122.062 126.581 124.692 124.96 125.923 123.897C127.937 122.108 131.238 117.578 131.238 116.571C131.238 116.348 121.67 116.124 109.976 116.124H88.7135V107.177V98.2292H110.256C122.118 98.2292 131.798 98.0055 131.798 97.7818C131.798 96.6634 128.385 92.1338 125.979 90.0088C120.943 85.591 118.984 85.1436 102.87 84.9199L88.7135 84.6962V75.8047V66.9132H133.476H178.239V75.8606Z" fill="white"/>
<path d="M8.12195 94.2127L8.12189 94.2129C5.1675 105.968 4.5 111.91 4.5 125.071C4.5 138.233 5.1675 144.175 8.12189 155.93L8.12196 155.93C18.9881 199.258 53.82 234.295 97.2314 245.601C109.554 248.778 115.443 249.5 129 249.5C142.169 249.5 148.115 248.833 159.876 245.88L159.877 245.88C203.286 235.02 238.286 200.264 249.599 156.821C252.777 144.506 253.5 138.621 253.5 125.071C253.5 111.522 252.777 105.637 249.599 93.3221C237.173 45.5372 196.936 9.38675 147.668 1.69965C144.987 1.28532 139.07 0.908401 133.171 0.691589C127.271 0.474747 121.456 0.420609 118.974 0.6409C108.051 1.64345 93.6047 4.98871 83.9701 8.7179C46.462 23.4237 17.7616 55.7874 8.12195 94.2127ZM178.739 84.8081V85.3081H178.239H162.292C157.903 85.3081 153.92 85.35 151.036 85.4128C149.593 85.4442 148.428 85.4808 147.626 85.5198C147.447 85.5285 147.287 85.5373 147.147 85.5461C147.183 85.5956 147.221 85.6477 147.262 85.7022C147.572 86.1122 148.007 86.6292 148.499 87.1483L148.507 87.1565L148.514 87.1651C149.453 88.2498 150.707 90.3806 151.717 92.407C152.225 93.4269 152.68 94.4364 153.009 95.2953C153.174 95.7245 153.309 96.1221 153.404 96.4682C153.488 96.7746 153.548 97.0674 153.558 97.3161C153.58 97.3266 153.611 97.3401 153.655 97.3553C153.914 97.4442 154.404 97.5241 155.296 97.5835C157.059 97.701 160.187 97.7292 165.65 97.7292H178.239H178.739V98.2292V107.177V116.124V116.624H178.239H165.314H152.77L152.536 117.483C152.536 117.483 152.536 117.484 152.536 117.484C152.154 118.922 150.949 121.431 149.538 123.953C148.119 126.487 146.452 129.101 145.111 130.755L145.111 130.756C141.759 134.872 137.085 138.464 132.096 141.027C127.11 143.59 121.772 145.144 117.082 145.144H115.433L116.843 146.776C116.843 146.776 116.844 146.776 116.844 146.777C133.795 166.178 151.094 186.488 154.517 190.862L154.52 190.867C154.611 190.985 154.732 191.153 154.79 191.341C154.821 191.444 154.841 191.577 154.809 191.722C154.776 191.873 154.698 191.996 154.599 192.09C154.424 192.257 154.178 192.339 153.95 192.391C153.704 192.448 153.386 192.49 152.988 192.522C151.408 192.65 148.26 192.649 142.371 192.621C142.371 192.621 142.371 192.621 142.371 192.621L129.839 192.621H129.611L129.462 192.449L109.039 168.906L109.039 168.906L88.616 145.419L88.4973 145.283L88.4934 145.102L88.3255 137.385L88.1577 129.668L88.1468 129.165L88.6495 129.157L102.526 128.933L102.528 128.933L116.295 128.767L119.832 127.081L119.834 127.08C121.821 126.142 124.406 124.545 125.593 123.521C126.561 122.661 127.864 121.116 128.931 119.647C129.463 118.915 129.928 118.214 130.257 117.64C130.405 117.383 130.521 117.158 130.604 116.972C130.339 116.95 129.982 116.928 129.536 116.907C128.463 116.854 126.907 116.806 124.981 116.764C121.132 116.68 115.82 116.624 109.976 116.624H88.7135H88.2135V116.124V107.177V98.2292V97.7292H88.7135H110.256C116.184 97.7292 121.566 97.6733 125.464 97.5895C127.414 97.5476 128.99 97.4988 130.076 97.4467C130.536 97.4246 130.904 97.4021 131.174 97.3798C131.087 97.177 130.96 96.9299 130.794 96.6456C130.45 96.0529 129.96 95.3324 129.39 94.5729C128.249 93.0515 126.817 91.417 125.649 90.3846C123.16 88.2014 121.487 87.0459 118.471 86.3798C115.398 85.7012 110.937 85.532 102.863 85.4199L102.862 85.4198L88.7056 85.1962L88.2135 85.1884V84.6962V75.8047V66.9132V66.4132H88.7135H133.476H178.239H178.739V66.9132V75.8606V84.8081Z" stroke="black"/>
</g>
<defs>
<filter id="filter0_d_25_114" x="0" y="0" width="258" height="258" filterUnits="userSpaceOnUse" color-interpolation-filters="sRGB">
<feFlood flood-opacity="0" result="BackgroundImageFix"/>
<feColorMatrix in="SourceAlpha" type="matrix" values="0 0 0 0 0 0 0 0 0 0 0 0 0 0 0 0 0 0 127 0" result="hardAlpha"/>
<feOffset dy="4"/>
<feGaussianBlur stdDeviation="2"/>
<feComposite in2="hardAlpha" operator="out"/>
<feColorMatrix type="matrix" values="0 0 0 0 0 0 0 0 0 0 0 0 0 0 0 0 0 0 0.25 0"/>
<feBlend mode="normal" in2="BackgroundImageFix" result="effect1_dropShadow_25_114"/>
<feBlend mode="normal" in="SourceGraphic" in2="effect1_dropShadow_25_114" result="shape"/>
</filter>
</defs>
</svg>
