<svg width="24" height="24" viewBox="0 0 24 24" fill="none" xmlns="http://www.w3.org/2000/svg">
<g id="money">
<g id="money/pay">
<path d="M24 12C24 18.6274 18.6274 24 12 24C5.37258 24 0 18.6274 0 12C0 5.37258 5.37258 0 12 0C18.6274 0 24 5.37258 24 12Z" fill="#EF645C"/>
<path d="M8.38511 6.73457C8.37462 6.84682 8.38638 6.96004 8.41971 7.06774C8.45304 7.17544 8.50729 7.27551 8.57936 7.36221C8.65142 7.44892 8.73989 7.52055 8.83968 7.57301C8.93947 7.62548 9.04863 7.65774 9.16091 7.66795L14.0036 8.11039L6.81534 15.2986C6.65459 15.4594 6.56428 15.6774 6.56428 15.9047C6.56428 16.1321 6.65459 16.3501 6.81534 16.5108C6.97608 16.6716 7.1941 16.7619 7.42143 16.7619C7.64876 16.7619 7.86677 16.6716 8.02752 16.5108L15.2158 9.32258L15.6582 14.1652C15.6686 14.2775 15.7009 14.3866 15.7534 14.4863C15.8059 14.586 15.8776 14.6744 15.9642 14.7465C16.0509 14.8185 16.1509 14.8728 16.2586 14.9061C16.3662 14.9395 16.4794 14.9514 16.5916 14.941C16.7038 14.9307 16.8129 14.8983 16.9126 14.8458C17.0124 14.7933 17.1008 14.7217 17.1728 14.635C17.2448 14.5484 17.2991 14.4483 17.3325 14.3407C17.3659 14.2331 17.3777 14.1199 17.3674 14.0077L16.7613 7.34066L16.7249 7.1952L16.6886 7.07398C16.6023 6.87938 16.4468 6.72383 16.2522 6.63759L16.131 6.60123L15.9855 6.56486L9.31849 5.95877C9.20624 5.94828 9.09302 5.96004 8.98532 5.99337C8.87762 6.0267 8.77755 6.08095 8.69085 6.15302C8.60414 6.22508 8.53251 6.31354 8.48005 6.41333C8.42758 6.51313 8.39532 6.62229 8.38511 6.73457Z" fill="white"/>
</g>
</g>
</svg>
