<svg width="19" height="19" viewBox="0 0 19 19" fill="none" xmlns="http://www.w3.org/2000/svg">
<g filter="url(#filter0_d_84_682)">
<path d="M6.41176 0.441176H12.5882C14.7811 0.441176 16.5588 2.21887 16.5588 4.41176V10.5882C16.5588 12.7811 14.7811 14.5588 12.5882 14.5588H6.41176C4.21887 14.5588 2.44118 12.7811 2.44118 10.5882V4.41176C2.44118 2.21887 4.21887 0.441176 6.41176 0.441176Z" stroke="black" stroke-width="0.882353" shape-rendering="crispEdges"/>
</g>
<g filter="url(#filter1_d_84_682)">
<path d="M13.4706 3.97058C13.4706 3.72693 13.2731 3.5294 13.0294 3.5294L9.05883 3.5294C8.81518 3.5294 8.61765 3.72693 8.61765 3.97058C8.61766 4.21424 8.81518 4.41176 9.05883 4.41176L12.5882 4.41176L12.5882 7.94117C12.5882 8.18482 12.7858 8.38234 13.0294 8.38235C13.2731 8.38235 13.4706 8.18482 13.4706 7.94117L13.4706 3.97058ZM5.84138 11.7825L13.3414 4.28254L12.7175 3.65862L5.21746 11.1586L5.84138 11.7825Z" fill="black"/>
</g>
<defs>
<filter id="filter0_d_84_682" x="0.235294" y="0" width="18.5294" height="18.5294" filterUnits="userSpaceOnUse" color-interpolation-filters="sRGB">
<feFlood flood-opacity="0" result="BackgroundImageFix"/>
<feColorMatrix in="SourceAlpha" type="matrix" values="0 0 0 0 0 0 0 0 0 0 0 0 0 0 0 0 0 0 127 0" result="hardAlpha"/>
<feOffset dy="1.76471"/>
<feGaussianBlur stdDeviation="0.882353"/>
<feComposite in2="hardAlpha" operator="out"/>
<feColorMatrix type="matrix" values="0 0 0 0 0 0 0 0 0 0 0 0 0 0 0 0 0 0 0.25 0"/>
<feBlend mode="normal" in2="BackgroundImageFix" result="effect1_dropShadow_84_682"/>
<feBlend mode="normal" in="SourceGraphic" in2="effect1_dropShadow_84_682" result="shape"/>
</filter>
<filter id="filter1_d_84_682" x="3.45276" y="3.52942" width="11.7825" height="11.7826" filterUnits="userSpaceOnUse" color-interpolation-filters="sRGB">
<feFlood flood-opacity="0" result="BackgroundImageFix"/>
<feColorMatrix in="SourceAlpha" type="matrix" values="0 0 0 0 0 0 0 0 0 0 0 0 0 0 0 0 0 0 127 0" result="hardAlpha"/>
<feOffset dy="1.76471"/>
<feGaussianBlur stdDeviation="0.882353"/>
<feComposite in2="hardAlpha" operator="out"/>
<feColorMatrix type="matrix" values="0 0 0 0 0 0 0 0 0 0 0 0 0 0 0 0 0 0 0.25 0"/>
<feBlend mode="normal" in2="BackgroundImageFix" result="effect1_dropShadow_84_682"/>
<feBlend mode="normal" in="SourceGraphic" in2="effect1_dropShadow_84_682" result="shape"/>
</filter>
</defs>
</svg>
