<svg width="14" height="15" viewBox="0 0 14 15" fill="none" xmlns="http://www.w3.org/2000/svg">
<path d="M6.75 1.5C5.95435 1.5 5.19129 1.81607 4.62868 2.37868C4.06607 2.94129 3.75 3.70435 3.75 4.5C3.75 5.29565 4.06607 6.05871 4.62868 6.62132C5.19129 7.18392 5.95435 7.49999 6.75 7.49999C7.54564 7.49999 8.30871 7.18392 8.87131 6.62132C9.43392 6.05871 9.74999 5.29565 9.74999 4.5C9.74999 3.70435 9.43392 2.94129 8.87131 2.37868C8.30871 1.81607 7.54564 1.5 6.75 1.5ZM2.25 4.5C2.25 3.30652 2.7241 2.16193 3.56802 1.31802C4.41193 0.474105 5.55652 0 6.75 0C7.94347 0 9.08806 0.474105 9.93197 1.31802C10.7759 2.16193 11.25 3.30652 11.25 4.5C11.25 5.69347 10.7759 6.83806 9.93197 7.68197C9.08806 8.52589 7.94347 8.99999 6.75 8.99999C5.55652 8.99999 4.41193 8.52589 3.56802 7.68197C2.7241 6.83806 2.25 5.69347 2.25 4.5ZM3.75 12C3.15326 12 2.58096 12.237 2.15901 12.659C1.73705 13.081 1.5 13.6533 1.5 14.25C1.5 14.4489 1.42098 14.6397 1.28033 14.7803C1.13968 14.921 0.948912 15 0.749999 15C0.551087 15 0.360322 14.921 0.21967 14.7803C0.0790175 14.6397 0 14.4489 0 14.25C0 13.2554 0.395088 12.3016 1.09835 11.5983C1.80161 10.8951 2.75544 10.5 3.75 10.5H9.74999C10.7446 10.5 11.6984 10.8951 12.4016 11.5983C13.1049 12.3016 13.5 13.2554 13.5 14.25C13.5 14.4489 13.421 14.6397 13.2803 14.7803C13.1397 14.921 12.9489 15 12.75 15C12.5511 15 12.3603 14.921 12.2197 14.7803C12.079 14.6397 12 14.4489 12 14.25C12 13.6533 11.7629 13.081 11.341 12.659C10.919 12.237 10.3467 12 9.74999 12H3.75Z" fill="black"/>
</svg>
