<svg width="24" height="24" viewBox="0 0 24 24" fill="none" xmlns="http://www.w3.org/2000/svg">
<circle cx="12" cy="12" r="12" fill="#18E213"/>
<path d="M6.70711 11.8232C6.31658 11.4326 5.68342 11.4326 5.29289 11.8232C4.90237 12.2137 4.90237 12.8469 5.29289 13.2374L6.70711 11.8232ZM8.29289 16.2374L9 16.9445L10.4142 15.5303L9.70711 14.8232L8.29289 16.2374ZM5.29289 13.2374L8.29289 16.2374L9.70711 14.8232L6.70711 11.8232L5.29289 13.2374Z" fill="white"/>
<path d="M9.26262 15.7929L8.55551 16.5L9.96973 17.9142L10.6768 17.2071L9.26262 15.7929ZM19.6768 8.20711C20.0674 7.81658 20.0674 7.18342 19.6768 6.79289C19.2863 6.40237 18.6531 6.40237 18.2626 6.79289L19.6768 8.20711ZM10.6768 17.2071L19.6768 8.20711L18.2626 6.79289L9.26262 15.7929L10.6768 17.2071Z" fill="white"/>
</svg>
