<svg width="28" height="28" viewBox="0 0 28 28" fill="none" xmlns="http://www.w3.org/2000/svg">
<path d="M28 14C28 21.732 21.732 28 14 28C6.26801 28 0 21.732 0 14C0 6.26801 6.26801 0 14 0C21.732 0 28 6.26801 28 14Z" fill="#25B462"/>
<path d="M17.4307 19.3563C17.443 19.2253 17.4293 19.0932 17.3904 18.9676C17.3515 18.8419 17.2882 18.7252 17.2041 18.624C17.1201 18.5229 17.0168 18.4393 16.9004 18.3781C16.784 18.3169 16.6566 18.2792 16.5257 18.2673L10.8759 17.7511L19.2622 9.36484C19.4497 9.17731 19.555 8.92295 19.555 8.65774C19.555 8.39252 19.4497 8.13817 19.2622 7.95063C19.0746 7.76309 18.8203 7.65774 18.555 7.65774C18.2898 7.65774 18.0355 7.76309 17.8479 7.95063L9.46165 16.3369L8.94547 10.6871C8.9334 10.5562 8.89565 10.4289 8.8344 10.3126C8.77314 10.1962 8.68956 10.0931 8.58845 10.0091C8.48733 9.92501 8.37065 9.86171 8.24506 9.82275C8.11948 9.7838 7.98745 9.76997 7.85652 9.78204C7.72559 9.79411 7.59832 9.83185 7.48198 9.89311C7.36563 9.95437 7.26249 10.0379 7.17845 10.1391C7.0944 10.2402 7.03109 10.3569 6.99214 10.4824C6.95319 10.608 6.93935 10.7401 6.95143 10.871L7.65853 18.6492L7.70096 18.8189L7.74338 18.9603C7.84399 19.1873 8.02547 19.3688 8.2525 19.4694L8.39392 19.5118L8.56363 19.5543L16.3418 20.2614C16.4728 20.2736 16.6049 20.2599 16.7305 20.221C16.8562 20.1821 16.9729 20.1188 17.0741 20.0347C17.1752 19.9507 17.2588 19.8475 17.32 19.731C17.3812 19.6146 17.4188 19.4873 17.4307 19.3563Z" fill="white"/>
</svg>
