<svg width="20" height="20" viewBox="0 0 20 20" fill="none" xmlns="http://www.w3.org/2000/svg">
<path d="M8 20C7.45 20 6.979 19.804 6.587 19.412C6.195 19.02 5.99933 18.5493 6 18H10C10 18.55 9.804 19.021 9.412 19.413C9.02 19.805 8.54933 20.0007 8 20ZM0 17V15H2V8C2 6.61667 2.41667 5.38734 3.25 4.312C4.08333 3.23667 5.16667 2.53267 6.5 2.2V1.5C6.5 1.08334 6.646 0.729002 6.938 0.437002C7.23 0.145002 7.584 -0.000664389 8 2.2779e-06C8.41667 2.2779e-06 8.771 0.146002 9.063 0.438002C9.355 0.730002 9.50067 1.084 9.5 1.5V2.2C9.8 2.28334 10.0917 2.37934 10.375 2.488C10.6583 2.59667 10.925 2.734 11.175 2.9C10.9583 3.16667 10.7707 3.44567 10.612 3.737C10.4533 4.02834 10.3077 4.33267 10.175 4.65C9.85833 4.45 9.51667 4.29167 9.15 4.175C8.78333 4.05834 8.4 4 8 4C6.9 4 5.95833 4.39167 5.175 5.175C4.39167 5.95834 4 6.9 4 8V15H12V11.925C12.2833 12.175 12.5917 12.4043 12.925 12.613C13.2583 12.8217 13.6167 12.9923 14 13.125V15H16V17H0ZM15 11V8H12V6H15V3H17V6H20V8H17V11H15Z" fill="black"/>
</svg>
