<svg width="20" height="20" viewBox="0 0 20 20" fill="none" xmlns="http://www.w3.org/2000/svg">
<path d="M9.16675 14.1667H10.8334V9.16666H9.16675V14.1667ZM10.0001 7.49999C10.2362 7.49999 10.4342 7.41999 10.5942 7.25999C10.7542 7.09999 10.834 6.90221 10.8334 6.66666C10.8334 6.43055 10.7534 6.23249 10.5934 6.07249C10.4334 5.91249 10.2356 5.83277 10.0001 5.83332C9.76397 5.83332 9.56591 5.91332 9.40591 6.07332C9.24591 6.23332 9.16619 6.4311 9.16675 6.66666C9.16675 6.90277 9.24675 7.10082 9.40675 7.26082C9.56675 7.42082 9.76453 7.50055 10.0001 7.49999ZM10.0001 18.3333C8.8473 18.3333 7.76397 18.1144 6.75008 17.6767C5.73619 17.2389 4.85425 16.6453 4.10425 15.8958C3.35425 15.1458 2.76064 14.2639 2.32341 13.25C1.88619 12.2361 1.6673 11.1528 1.66675 9.99999C1.66675 8.84721 1.88564 7.76388 2.32341 6.74999C2.76119 5.7361 3.3548 4.85416 4.10425 4.10416C4.85425 3.35416 5.73619 2.76055 6.75008 2.32332C7.76397 1.8861 8.8473 1.66721 10.0001 1.66666C11.1529 1.66666 12.2362 1.88555 13.2501 2.32332C14.264 2.7611 15.1459 3.35471 15.8959 4.10416C16.6459 4.85416 17.2398 5.7361 17.6776 6.74999C18.1154 7.76388 18.334 8.84721 18.3334 9.99999C18.3334 11.1528 18.1145 12.2361 17.6767 13.25C17.239 14.2639 16.6454 15.1458 15.8959 15.8958C15.1459 16.6458 14.264 17.2397 13.2501 17.6775C12.2362 18.1153 11.1529 18.3339 10.0001 18.3333ZM10.0001 16.6667C11.8612 16.6667 13.4376 16.0208 14.7292 14.7292C16.0209 13.4375 16.6667 11.8611 16.6667 9.99999C16.6667 8.13888 16.0209 6.56249 14.7292 5.27082C13.4376 3.97916 11.8612 3.33332 10.0001 3.33332C8.13897 3.33332 6.56258 3.97916 5.27091 5.27082C3.97925 6.56249 3.33341 8.13888 3.33341 9.99999C3.33341 11.8611 3.97925 13.4375 5.27091 14.7292C6.56258 16.0208 8.13897 16.6667 10.0001 16.6667Z" fill="black"/>
</svg>
