<svg width="161" height="161" viewBox="0 0 161 161" fill="none" xmlns="http://www.w3.org/2000/svg">
<ellipse cx="72.9139" cy="74.9451" rx="50.8188" ry="60.075" fill="black"/>
<path d="M74.0139 0.0920868C66.9512 0.740326 57.6184 2.90115 51.3845 5.31404C27.1336 14.8216 8.5761 35.7454 2.34221 60.5946C0.432408 68.1935 0 72.0469 0 80.546C0 89.0452 0.432408 92.8987 2.34221 100.497C9.36884 128.516 31.8901 151.168 59.9606 158.479C67.9241 160.532 71.7437 161 80.5 161C89.004 161 92.8597 160.568 100.463 158.659C128.533 151.637 151.163 129.164 158.478 101.074C160.532 93.1147 161 89.2973 161 80.546C161 71.7948 160.532 67.9774 158.478 60.0184C150.442 29.1189 124.425 5.7462 92.5714 0.776352C89.0761 0.23616 77.2569 -0.196014 74.0139 0.0920868ZM112.21 48.8543V54.6164H101.94C96.2829 54.6164 91.6705 54.7244 91.6705 54.8325C91.6705 54.9765 92.175 55.6608 92.8236 56.345C93.9767 57.6775 95.9946 61.711 95.9946 62.7194C95.9946 63.1876 97.0756 63.2596 104.102 63.2596H112.21V69.0218V74.7839H103.886H95.5622L95.346 75.5762C94.8776 77.3409 92.3192 81.9146 90.6256 84.0033C86.3735 89.2253 78.7343 93.1507 72.8248 93.1507H71.0591L72.4284 94.7353C83.3467 107.232 94.4812 120.305 96.6793 123.114C97.1477 123.726 96.7153 123.762 89.1121 123.726H81.0405L67.8881 108.564L54.7357 93.4389L54.6276 88.469L54.5195 83.4991L63.4559 83.3551L72.3923 83.2471L74.7346 82.1306C76.0318 81.5184 77.7254 80.474 78.5181 79.7898C79.8154 78.6373 81.9414 75.7203 81.9414 75.072C81.9414 74.928 75.7795 74.7839 68.2484 74.7839H54.5555V69.0218V63.2596H68.4286C76.0678 63.2596 82.3017 63.1156 82.3017 62.9715C82.3017 62.2512 80.1036 59.3342 78.5542 57.9656C75.3111 55.1206 74.0499 54.8325 63.6721 54.6884L54.5555 54.5444V48.8182V43.0921H83.3827H112.21V48.8543Z" fill="white"/>
</svg>
